<?xml version="1.0" encoding="UTF-8" ?>
<!DOCTYPE svg PUBLIC "-//W3C//DTD SVG 1.1//EN" "http://www.w3.org/Graphics/SVG/1.1/DTD/svg11.dtd">
<svg width="340pt" height="302pt" viewBox="0 0 340 302" version="1.1" xmlns="http://www.w3.org/2000/svg">
<g id="#0e0d0cff">
</g>
<g id="#91ba45ff">
<path fill="#91ba45" opacity="1.00" d=" M 152.57 25.63 C 159.64 20.97 169.48 20.83 176.58 25.48 C 206.73 42.97 236.93 60.38 267.07 77.89 C 270.79 80.05 274.78 81.96 277.81 85.11 C 281.54 89.07 283.54 94.52 283.41 99.95 C 283.36 137.27 283.37 174.60 283.38 211.93 C 283.45 217.08 281.64 222.27 278.16 226.10 C 275.12 229.59 270.81 231.52 266.92 233.85 C 260.33 237.53 253.95 241.57 247.26 245.08 C 244.02 240.24 240.68 235.46 237.38 230.66 C 245.62 225.79 253.95 221.10 262.26 216.34 C 263.85 215.34 265.98 214.28 265.67 212.04 C 265.80 175.36 265.64 138.68 265.73 102.01 C 265.62 99.98 266.10 97.29 263.76 96.35 C 230.86 77.27 197.88 58.30 164.95 39.24 C 158.85 42.27 153.10 45.93 147.17 49.26 C 120.47 64.56 93.89 80.06 67.18 95.34 C 65.50 96.30 63.38 97.55 63.69 99.84 C 63.56 135.57 63.70 171.30 63.61 207.03 C 63.68 209.32 63.36 211.71 64.03 213.94 C 66.36 216.46 69.73 217.65 72.59 219.43 C 103.28 237.01 133.98 254.56 164.64 272.17 C 164.68 278.07 164.69 283.96 164.64 289.86 C 157.83 289.65 152.14 285.66 146.43 282.41 C 116.51 264.99 86.46 247.78 56.51 230.40 C 50.02 226.81 45.84 219.51 46.11 212.08 C 46.15 179.71 46.05 147.34 46.11 114.98 C 46.06 108.44 45.52 101.86 46.43 95.35 C 47.33 89.43 51.35 84.35 56.40 81.31 C 88.43 62.70 120.54 44.23 152.57 25.63 Z" />
<path fill="#91ba45" opacity="1.00" d=" M 108.83 87.83 C 125.35 78.61 141.41 68.58 158.07 59.63 C 151.69 81.70 142.41 102.83 135.96 124.88 C 134.02 131.43 134.67 138.32 135.89 144.93 C 134.74 146.94 133.81 149.07 133.15 151.30 C 125.42 151.40 117.58 154.55 112.51 160.50 C 107.55 166.24 104.57 173.53 98.74 178.55 C 93.80 183.36 86.76 184.78 80.19 185.81 C 80.21 180.47 80.22 175.13 80.18 169.79 C 83.41 174.81 87.56 179.36 92.94 182.09 C 96.74 179.55 100.14 176.47 103.05 172.95 C 94.95 170.47 87.34 163.91 86.32 155.13 C 85.08 146.79 90.16 137.93 98.17 135.15 C 105.70 132.49 115.02 137.18 117.01 145.00 C 118.81 151.40 113.92 159.26 107.01 159.35 C 104.47 159.60 102.23 158.22 99.99 157.28 C 103.08 159.29 106.27 161.93 110.22 161.46 C 114.02 158.35 117.30 154.31 122.27 153.01 C 126.44 146.47 125.64 137.31 120.59 131.46 C 113.33 122.12 98.64 120.36 89.10 127.12 C 85.21 129.70 82.42 133.53 80.22 137.57 C 80.21 128.38 80.14 119.18 80.21 109.98 C 80.05 106.64 81.76 103.34 84.76 101.77 C 92.76 97.07 100.82 92.49 108.83 87.83 Z" />
<path fill="#91ba45" opacity="1.00" d=" M 170.89 59.18 C 194.20 72.47 217.30 86.12 240.63 99.38 C 243.28 100.99 246.37 102.32 248.03 105.09 C 249.44 107.46 249.31 110.31 249.34 112.97 C 249.28 120.70 249.32 128.43 249.31 136.17 C 244.88 128.74 237.03 122.61 228.01 123.15 C 216.86 122.31 205.38 131.50 205.22 142.96 C 205.00 146.21 205.99 149.36 207.25 152.30 C 211.60 154.08 215.24 157.08 218.69 160.20 C 218.75 160.62 218.87 161.46 218.93 161.89 L 218.40 161.84 C 213.83 154.84 205.22 151.28 197.04 151.29 C 196.23 148.50 193.66 145.99 194.49 142.93 C 195.94 136.39 195.74 129.52 193.70 123.13 C 190.65 113.25 186.82 103.62 183.01 94.01 C 178.57 82.55 172.81 71.45 170.89 59.18 Z" />
<path fill="#91ba45" opacity="1.00" d=" M 150.85 94.78 C 152.28 89.92 153.67 85.01 155.95 80.47 C 154.98 85.71 152.59 90.54 151.40 95.73 C 147.75 110.32 144.27 125.15 144.24 140.28 C 143.08 136.47 143.45 132.43 143.91 128.55 C 145.42 117.14 147.86 105.88 150.85 94.78 Z" />
<path fill="#91ba45" opacity="1.00" d=" M 172.24 80.82 C 173.57 82.88 174.60 85.13 175.35 87.48 C 178.33 96.61 180.46 105.99 182.38 115.40 C 183.80 123.62 185.86 132.06 184.05 140.40 C 184.16 125.32 180.74 110.53 177.07 95.99 C 175.84 90.81 173.72 85.91 172.24 80.82 Z" />
<path fill="#91ba45" opacity="1.00" d=" M 213.43 151.64 C 210.22 142.81 219.20 133.77 227.94 134.46 C 238.36 134.80 245.76 146.23 243.71 156.05 C 242.28 164.48 234.91 170.48 227.11 172.98 C 229.88 175.92 232.53 179.14 236.12 181.13 C 237.52 182.33 239.14 181.15 240.32 180.30 C 243.84 177.77 246.68 174.45 249.33 171.05 C 249.27 175.92 249.30 180.80 249.30 185.68 C 242.97 184.64 236.27 183.14 231.49 178.56 C 226.62 174.44 223.98 168.50 219.95 163.68 C 220.02 163.32 220.16 162.61 220.23 162.25 C 223.58 161.01 227.08 159.96 229.78 157.48 C 224.05 161.76 215.34 158.38 213.43 151.64 Z" />
<path fill="#91ba45" opacity="1.00" d=" M 143.50 143.58 C 146.00 142.86 148.26 144.60 150.29 145.81 C 154.53 148.81 158.69 152.03 162.10 155.97 C 157.84 154.10 154.92 150.28 151.07 147.78 C 148.86 146.38 146.63 144.20 143.81 144.58 C 141.02 145.83 139.40 148.66 136.96 150.42 C 138.29 147.53 140.30 144.59 143.50 143.58 Z" />
<path fill="#91ba45" opacity="1.00" d=" M 183.03 144.03 C 187.52 141.83 191.90 146.27 193.19 150.29 C 191.17 148.46 189.32 146.46 187.39 144.54 C 186.49 144.57 184.70 144.62 183.80 144.64 C 177.79 147.86 173.08 152.94 167.18 156.27 C 171.63 151.28 177.17 147.21 183.03 144.03 Z" />
<path fill="#91ba45" opacity="1.00" d=" M 142.83 153.09 C 148.55 154.72 153.94 157.30 159.58 159.18 C 156.12 159.71 152.63 160.59 149.11 160.17 C 146.28 158.61 144.72 155.58 142.83 153.09 Z" />
<path fill="#91ba45" opacity="1.00" d=" M 170.57 159.22 C 176.22 157.31 181.62 154.68 187.38 153.07 C 185.42 155.50 183.97 158.64 181.11 160.15 C 177.57 160.56 174.06 159.67 170.57 159.22 Z" />
<path fill="#91ba45" opacity="1.00" d=" M 193.04 165.94 C 193.72 163.59 193.94 161.13 194.51 158.76 C 194.81 161.78 194.37 164.80 193.26 167.62 C 198.84 165.93 205.43 165.18 210.62 168.41 C 218.32 172.70 220.46 182.50 227.93 187.08 C 234.29 191.23 242.17 190.57 249.40 191.42 C 249.22 194.64 249.66 198.10 248.20 201.10 C 247.02 203.61 244.42 204.87 242.18 206.24 C 219.22 219.43 196.26 232.65 173.39 246.01 C 173.07 241.12 172.85 236.05 174.58 231.38 C 177.33 223.63 182.73 217.18 188.41 211.38 C 193.41 206.23 197.20 199.34 196.78 191.96 C 196.81 184.16 192.62 177.19 188.00 171.21 C 189.80 169.60 192.12 168.29 193.04 165.94 M 192.24 168.79 C 191.18 169.53 190.13 170.28 189.07 171.02 C 191.55 174.81 194.01 178.63 195.81 182.80 C 201.69 186.48 207.58 190.54 211.80 196.13 C 215.55 201.30 215.29 210.03 208.96 213.05 C 203.85 215.80 196.27 211.10 198.03 205.08 C 198.24 201.83 201.51 200.36 202.75 197.74 C 200.18 199.46 197.03 200.96 195.93 204.09 C 193.04 210.71 198.83 218.88 205.95 218.76 C 213.91 219.41 221.07 211.91 220.54 204.04 C 220.03 196.24 215.74 187.41 207.39 185.68 C 213.23 186.84 219.21 187.16 225.14 186.55 C 221.81 183.23 219.00 179.47 216.40 175.57 C 214.34 172.11 210.30 170.92 207.12 168.79 C 202.63 165.68 197.10 168.11 192.24 168.79 Z" />
<path fill="#91ba45" opacity="1.00" d=" M 116.94 169.91 C 122.65 165.19 131.36 165.04 137.65 168.66 C 133.43 168.45 129.15 166.38 124.96 167.77 C 121.74 169.66 118.37 171.32 115.18 173.25 C 111.50 177.51 108.83 182.60 104.72 186.54 C 110.87 187.14 117.05 186.64 123.20 186.25 C 117.68 186.13 114.12 190.63 111.97 195.04 C 109.71 199.91 108.49 205.92 111.12 210.90 C 113.43 215.71 118.63 219.10 124.03 218.76 C 130.50 218.97 136.01 212.39 134.82 206.06 C 134.44 202.30 131.10 200.01 128.43 197.80 C 130.46 201.29 133.90 205.50 131.70 209.70 C 129.61 214.31 122.80 215.12 119.31 211.72 C 114.59 207.77 115.42 200.33 118.65 195.70 C 122.49 189.79 130.89 188.84 134.16 182.56 C 133.22 188.35 132.45 194.62 134.87 200.18 C 136.92 205.64 141.15 209.79 145.04 213.98 C 152.65 222.90 159.07 234.41 156.67 246.55 C 134.53 233.15 111.88 220.59 89.53 207.54 C 86.48 205.66 82.75 204.18 81.03 200.82 C 79.82 197.83 80.30 194.51 80.20 191.37 C 87.75 190.79 96.08 191.21 102.54 186.59 C 108.70 182.26 111.10 174.53 116.94 169.91 Z" />
<path fill="#91ba45" opacity="1.00" d=" M 159.56 178.53 C 161.91 177.48 164.56 175.49 167.18 176.87 C 171.39 178.71 175.42 181.08 178.91 184.09 C 183.03 187.74 186.00 193.32 184.88 198.94 C 184.06 204.14 180.71 208.37 177.71 212.51 C 173.21 219.00 169.17 226.08 167.75 233.95 C 166.82 239.05 167.56 244.24 168.26 249.32 C 166.18 249.40 164.09 249.45 162.01 249.47 C 162.52 243.93 163.43 238.28 162.19 232.77 C 160.30 224.18 155.50 216.60 150.36 209.59 C 146.77 204.95 144.03 199.00 145.50 193.03 C 147.35 186.15 153.61 181.75 159.56 178.53 Z" />
</g>
</svg>
